<svg xmlns="http://www.w3.org/2000/svg" xmlns:xlink="http://www.w3.org/1999/xlink" width="500" zoomAndPan="magnify" viewBox="0 0 375 374.999991" height="500" preserveAspectRatio="xMidYMid meet" version="1.0"><defs><clipPath id="3aaa5f1473"><path d="M 277 164 L 367.359375 164 L 367.359375 322.394531 L 277 322.394531 Z M 277 164 " clip-rule="nonzero"/></clipPath><clipPath id="c9fa433d6c"><path d="M 142 52.394531 L 233 52.394531 L 233 322.394531 L 142 322.394531 Z M 142 52.394531 " clip-rule="nonzero"/></clipPath><clipPath id="c2b30908fa"><path d="M 7.359375 119 L 98 119 L 98 322.394531 L 7.359375 322.394531 Z M 7.359375 119 " clip-rule="nonzero"/></clipPath></defs><g clip-path="url(#3aaa5f1473)"><path fill="#f44336" d="M 367.359375 299.894531 L 367.359375 187.394531 C 367.359375 174.972656 357.277344 164.894531 344.859375 164.894531 L 299.859375 164.894531 C 287.4375 164.894531 277.359375 174.972656 277.359375 187.394531 L 277.359375 299.894531 C 277.359375 312.3125 287.4375 322.394531 299.859375 322.394531 L 344.859375 322.394531 C 357.277344 322.394531 367.359375 312.3125 367.359375 299.894531 Z M 367.359375 299.894531 " fill-opacity="1" fill-rule="nonzero"/></g><g clip-path="url(#c9fa433d6c)"><path fill="#2196f3" d="M 209.859375 322.394531 C 222.277344 322.394531 232.359375 312.3125 232.359375 299.894531 L 232.359375 74.894531 C 232.359375 62.472656 222.277344 52.394531 209.859375 52.394531 L 164.859375 52.394531 C 152.453125 52.394531 142.359375 62.472656 142.359375 74.894531 L 142.359375 299.894531 C 142.359375 312.3125 152.453125 322.394531 164.859375 322.394531 Z M 209.859375 322.394531 " fill-opacity="1" fill-rule="nonzero"/></g><g clip-path="url(#c2b30908fa)"><path fill="#ffc107" d="M 7.359375 299.894531 C 7.359375 312.3125 17.453125 322.394531 29.859375 322.394531 L 74.859375 322.394531 C 87.277344 322.394531 97.359375 312.3125 97.359375 299.894531 L 97.359375 142.394531 C 97.359375 129.972656 87.277344 119.894531 74.859375 119.894531 L 29.859375 119.894531 C 17.453125 119.894531 7.359375 129.972656 7.359375 142.394531 Z M 7.359375 299.894531 " fill-opacity="1" fill-rule="nonzero"/></g></svg>