<svg xmlns="http://www.w3.org/2000/svg" xmlns:xlink="http://www.w3.org/1999/xlink" width="500" zoomAndPan="magnify" viewBox="0 0 375 374.999991" height="500" preserveAspectRatio="xMidYMid meet" version="1.0"><defs><clipPath id="7d20b44301"><path d="M 277 164 L 367.828125 164 L 367.828125 322.933594 L 277 322.933594 Z M 277 164 " clip-rule="nonzero"/></clipPath><clipPath id="4d25206d7d"><path d="M 142 52.183594 L 233 52.183594 L 233 322.933594 L 142 322.933594 Z M 142 52.183594 " clip-rule="nonzero"/></clipPath><clipPath id="a529bed1cb"><path d="M 7.078125 119 L 98 119 L 98 322.933594 L 7.078125 322.933594 Z M 7.078125 119 " clip-rule="nonzero"/></clipPath></defs><g clip-path="url(#7d20b44301)"><path fill="#f44336" d="M 367.828125 300.371094 L 367.828125 187.558594 C 367.828125 175.105469 357.726562 164.996094 345.28125 164.996094 L 300.1875 164.996094 C 287.742188 164.996094 277.640625 175.105469 277.640625 187.558594 L 277.640625 300.371094 C 277.640625 312.828125 287.742188 322.933594 300.1875 322.933594 L 345.28125 322.933594 C 357.726562 322.933594 367.828125 312.828125 367.828125 300.371094 Z M 367.828125 300.371094 " fill-opacity="1" fill-rule="nonzero"/></g><g clip-path="url(#4d25206d7d)"><path fill="#2196f3" d="M 210 322.933594 C 222.445312 322.933594 232.546875 312.828125 232.546875 300.371094 L 232.546875 74.746094 C 232.546875 62.292969 222.445312 52.183594 210 52.183594 L 164.90625 52.183594 C 152.476562 52.183594 142.359375 62.292969 142.359375 74.746094 L 142.359375 300.371094 C 142.359375 312.828125 152.476562 322.933594 164.90625 322.933594 Z M 210 322.933594 " fill-opacity="1" fill-rule="nonzero"/></g><g clip-path="url(#a529bed1cb)"><path fill="#ffc107" d="M 7.082031 300.371094 C 7.082031 312.828125 17.195312 322.933594 29.628906 322.933594 L 74.722656 322.933594 C 87.167969 322.933594 97.269531 312.828125 97.269531 300.371094 L 97.269531 142.433594 C 97.269531 129.980469 87.167969 119.871094 74.722656 119.871094 L 29.628906 119.871094 C 17.195312 119.871094 7.082031 129.980469 7.082031 142.433594 Z M 7.082031 300.371094 " fill-opacity="1" fill-rule="nonzero"/></g></svg>