<svg xmlns="http://www.w3.org/2000/svg" xmlns:xlink="http://www.w3.org/1999/xlink" width="500" zoomAndPan="magnify" viewBox="0 0 375 374.999991" height="500" preserveAspectRatio="xMidYMid meet" version="1.0"><defs><clipPath id="fa2b75adfa"><path d="M 43 11 L 287 11 L 287 367.285156 L 43 367.285156 Z M 43 11 " clip-rule="nonzero"/></clipPath></defs><path fill="#b3b1b0" d="M 340.449219 224.105469 C 340.449219 213.089844 332.078125 204.125 321.75 204.125 L 172.398438 204.125 C 162.066406 204.125 153.699219 213.089844 153.699219 224.105469 C 153.699219 235.121094 162.054688 244.085938 172.398438 244.085938 L 321.75 244.085938 C 332.078125 244.101562 340.449219 235.136719 340.449219 224.105469 Z M 340.449219 224.105469 " fill-opacity="1" fill-rule="nonzero"/><g clip-path="url(#fa2b75adfa)"><path fill="#e7a41f" d="M 65.636719 280.992188 L 129.640625 345.730469 C 144.082031 360.265625 164.042969 367.285156 186.078125 367.285156 C 208.117188 367.285156 228.078125 359.683594 242.546875 345.105469 L 280.953125 305.960938 C 288.523438 298.332031 288.253906 285.699219 280.375 277.753906 C 272.496094 269.8125 259.96875 269.546875 252.417969 277.175781 L 212.703125 315.878906 C 205.847656 322.808594 196.347656 325.703125 185.855469 325.703125 C 175.367188 325.703125 165.882812 322.808594 158.996094 315.878906 L 95.210938 251.109375 C 88.339844 244.175781 84.882812 234.035156 84.882812 223.453125 C 84.882812 212.867188 88.339844 203.308594 95.210938 196.375 L 158.804688 131.355469 C 165.675781 124.421875 175.367188 121.777344 185.84375 121.777344 C 196.320312 121.777344 205.816406 124.671875 212.6875 131.605469 L 252.402344 170.292969 C 259.96875 177.9375 272.496094 177.671875 280.375 169.726562 C 288.253906 161.769531 288.523438 149.136719 280.953125 141.507812 L 242.546875 102.375 C 232.917969 92.785156 220.71875 85.808594 207.050781 82.632812 L 206.542969 82.527344 L 242.859375 45.371094 C 250.457031 37.742188 250.191406 25.09375 242.308594 17.152344 C 234.429688 9.207031 221.890625 8.957031 214.304688 16.585938 L 65.636719 166.519531 C 51.195312 181.097656 43.640625 201.214844 43.640625 223.453125 C 43.640625 245.691406 51.195312 266.445312 65.636719 280.992188 Z M 65.636719 280.992188 " fill-opacity="1" fill-rule="nonzero"/></g><path fill="#070706" d="M 134.390625 349.679688 C 131.777344 348.238281 129.464844 346.429688 127.355469 344.320312 C 107.664062 324.53125 87.882812 304.832031 68.234375 284.984375 C 38.714844 255.175781 34.070312 211.695312 56.570312 176.320312 C 60.054688 170.839844 64.417969 166.015625 69.019531 161.414062 C 116.628906 113.703125 164.21875 65.976562 211.828125 18.265625 C 221.101562 8.972656 234.058594 8.585938 242.679688 17.269531 C 250.992188 25.628906 250.5 38.867188 241.523438 47.9375 C 230.109375 59.460938 218.683594 70.949219 207.257812 82.453125 C 206.648438 84.265625 205.179688 85.421875 203.917969 86.714844 C 191.109375 99.71875 177.949219 112.382812 165.320312 125.578125 C 163.671875 127.300781 161.429688 128.339844 159.796875 130.105469 C 138.679688 151.230469 117.308594 172.117188 96.488281 193.523438 C 79.644531 210.847656 80.210938 237.140625 97.5 254.789062 C 116.910156 274.621094 136.660156 294.128906 156.28125 313.785156 C 157.273438 314.777344 158.300781 315.742188 159.308594 316.722656 C 166.253906 321.222656 166.34375 335.28125 162.023438 341.53125 C 157.261719 348.433594 151.042969 352.664062 142.242188 352.335938 C 139.289062 352.246094 136.855469 351.058594 134.390625 349.679688 Z M 134.390625 349.679688 " fill-opacity="1" fill-rule="nonzero"/></svg>