<svg xmlns="http://www.w3.org/2000/svg" xmlns:xlink="http://www.w3.org/1999/xlink" width="500" zoomAndPan="magnify" viewBox="0 0 375 374.999991" height="500" preserveAspectRatio="xMidYMid meet" version="1.0"><defs><clipPath id="665483055d"><path d="M 50 18 L 282 18 L 282 358.707031 L 50 358.707031 Z M 50 18 " clip-rule="nonzero"/></clipPath></defs><path fill="#b3b1b0" d="M 333.429688 222.105469 C 333.429688 211.59375 325.4375 203.039062 315.578125 203.039062 L 172.992188 203.039062 C 163.132812 203.039062 155.140625 211.59375 155.140625 222.105469 C 155.140625 232.613281 163.117188 241.167969 172.992188 241.167969 L 315.578125 241.167969 C 325.4375 241.183594 333.429688 232.628906 333.429688 222.105469 Z M 333.429688 222.105469 " fill-opacity="1" fill-rule="nonzero"/><g clip-path="url(#665483055d)"><path fill="#e7a41f" d="M 71.066406 276.378906 L 132.175781 338.144531 C 145.960938 352.007812 165.015625 358.707031 186.054688 358.707031 C 207.09375 358.707031 226.148438 351.457031 239.964844 337.546875 L 276.628906 300.199219 C 283.855469 292.921875 283.601562 280.867188 276.078125 273.289062 C 268.554688 265.710938 256.597656 265.457031 249.386719 272.738281 L 211.472656 309.660156 C 204.925781 316.277344 195.859375 319.039062 185.84375 319.039062 C 175.824219 319.039062 166.773438 316.277344 160.199219 309.660156 L 99.304688 247.867188 C 92.746094 241.253906 89.445312 231.578125 89.445312 221.480469 C 89.445312 211.382812 92.746094 202.261719 99.304688 195.648438 L 160.015625 133.613281 C 166.574219 127 175.824219 124.476562 185.828125 124.476562 C 195.832031 124.476562 204.898438 127.238281 211.457031 133.851562 L 249.371094 170.761719 C 256.597656 178.054688 268.554688 177.800781 276.078125 170.222656 C 283.601562 162.632812 283.855469 150.578125 276.628906 143.300781 L 239.964844 105.964844 C 230.769531 96.816406 219.121094 90.160156 206.074219 87.128906 L 205.59375 87.03125 L 240.261719 51.578125 C 247.515625 44.300781 247.261719 32.230469 239.738281 24.65625 C 232.214844 17.078125 220.242188 16.835938 213.003906 24.117188 L 71.066406 167.164062 C 57.28125 181.074219 50.070312 200.265625 50.070312 221.480469 C 50.070312 242.699219 57.28125 262.496094 71.066406 276.378906 Z M 71.066406 276.378906 " fill-opacity="1" fill-rule="nonzero"/></g><path fill="#070706" d="M 136.707031 341.910156 C 134.214844 340.535156 132.003906 338.808594 129.992188 336.796875 C 111.191406 317.917969 92.304688 299.125 73.546875 280.1875 C 45.367188 251.746094 40.933594 210.265625 62.410156 176.511719 C 65.742188 171.285156 69.90625 166.683594 74.296875 162.292969 C 119.75 116.773438 165.183594 71.238281 210.636719 25.71875 C 219.492188 16.851562 231.859375 16.484375 240.089844 24.769531 C 248.027344 32.742188 247.558594 45.375 238.984375 54.03125 C 228.089844 65.019531 217.183594 75.980469 206.273438 86.957031 C 205.691406 88.6875 204.289062 89.792969 203.085938 91.023438 C 190.859375 103.429688 178.289062 115.511719 166.234375 128.101562 C 164.660156 129.746094 162.523438 130.738281 160.964844 132.421875 C 140.800781 152.578125 120.402344 172.503906 100.523438 192.929688 C 84.441406 209.457031 84.980469 234.539062 101.488281 251.378906 C 120.019531 270.300781 138.875 288.914062 157.605469 307.664062 C 158.554688 308.613281 159.53125 309.535156 160.496094 310.46875 C 167.125 314.761719 167.210938 328.171875 163.089844 334.136719 C 158.539062 340.722656 152.605469 344.757812 144.203125 344.445312 C 141.382812 344.359375 139.058594 343.226562 136.707031 341.910156 Z M 136.707031 341.910156 " fill-opacity="1" fill-rule="nonzero"/></svg>