<svg xmlns="http://www.w3.org/2000/svg" viewBox="0 0 256 256" style="enable-background:new 0 0 256 256" xml:space="preserve"><path style="fill:#0e141e" d="M0 0h256v256H0z"/><path d="M125.39 85.35h-19.26c-.65 0-1.18.53-1.18 1.18v30.61H84.2v-30.6c0-.65-.53-1.18-1.18-1.18H63.76c-.65 0-1.18.53-1.18 1.18v82.85c0 .65.53 1.18 1.18 1.18h19.26c.65 0 1.18-.53 1.18-1.18v-30.61h20.75v30.61c0 .65.53 1.18 1.18 1.18h19.26c.65 0 1.18-.53 1.18-1.18V86.54c0-.66-.53-1.19-1.18-1.19z" style="fill:#fff"/><path d="M199.76 170.57h-61.64c-.65 0-1.18-.53-1.18-1.18V86.53c0-.65.53-1.18 1.18-1.18h61.64c.65 0 1.18.53 1.18 1.18v82.85c0 .66-.53 1.19-1.18 1.19z" style="fill:#00ea64"/></svg>